# xmcd CD database file
#
# Track frame offsets:
#	150
#	39337
#	74762
#	92825
#	144375
#	183450
#	204955
#	222240
#	251390
#
# Disc length: 3677 seconds
#
# Revision: 0
# Processed by: cddbd v1.5.1PL0 Copyright (c) Steve Scherf et al.
# Submitted via: CDex 1.51
#
DISCID=810e5b09
DTITLE=Al Di Meola, John Mc Laughlin, Paco De Lucia - Friday night in San Francisco
DYEAR=1981
DGENRE=Jazz
TTITLE0=La Estiba 
TTITLE1=Beyond The Mirage 
TTITLE2=Midsummer Night 
TTITLE3=Manha De Carnaval
TTITLE4=Letter From India 
TTITLE5=Espiritu 
TTITLE6=Le Monastere Dans Les Montagnes 
TTITLE7=Azzura
TTITLE8=Cardeosa
EXTD=YEAR: 1981
EXTT0=
EXTT1=
EXTT2=
EXTT3=
EXTT4=
EXTT5=
EXTT6=
EXTT7=
EXTT8=
PLAYORDER=
